<svg width="550" height="75" viewBox="0 0 550 75" fill="none" xmlns="http://www.w3.org/2000/svg">
<path d="M236.8 36.2652L239 21.4652C234.2 18.8652 227.5 16.6652 219.8 16.6652C204.6 16.6652 196.3 24.6652 196.3 34.9652C196.3 45.8652 206.2 49.0652 213 51.3652C217.1 52.8652 220.3 53.9652 220.3 56.1652C220.3 57.9652 218.2 59.6652 214 59.6652C207.9 59.6652 199.4 56.1652 193.9 51.2652L191.4 67.3652C197.1 71.5652 205.3 74.0652 214 74.0652C229.1 74.0652 237.7 66.6652 237.7 56.1652C237.7 45.1652 228.4 41.4652 220.9 38.7652C216.7 37.2652 213.7 36.3652 213.7 34.2652C213.7 32.4652 215.8 31.0652 220.1 31.0652C226.3 31.1652 232.8 33.9652 236.8 36.2652Z" fill="#ffffff"/>
<path d="M44.1 18.0651L43.1 22.8651C40.2 17.1651 31.6 16.5651 27 16.5651C12.6 16.5651 0 30.3651 0 49.2651C0 64.4651 9.2 74.0651 20.7 74.0651C27.1 74.0651 32.6 72.5651 37.1 67.2651L35.9 72.5651H38.5H54L62.3 17.9651H44.1V18.0651ZM29 55.8651C22.8 55.8651 18.1 51.0651 18.1 44.9651C18.1 38.9651 22.9 34.0651 29 34.0651C35 34.0651 39.8 38.9651 39.8 44.9651C39.9 51.0651 35 55.8651 29 55.8651Z" fill="#ffffff"/>
<path d="M177.6 18.0651H175.7L174.7 22.8651C171.8 17.1651 163.2 16.5651 158.6 16.5651C144.2 16.5651 131.6 30.3651 131.6 49.2651C131.6 64.4651 140.8 74.0651 152.3 74.0651C158.7 74.0651 164.2 72.5651 168.7 67.2651L167.5 72.5651H170.1H185.6L193.9 17.9651H177.6V18.0651ZM160.7 55.8651C154.5 55.8651 149.8 51.0651 149.8 44.9651C149.8 38.9651 154.6 34.0651 160.7 34.0651C166.7 34.0651 171.5 38.9651 171.5 44.9651C171.5 51.0651 166.6 55.8651 160.7 55.8651Z" fill="#ffffff"/>
<path d="M314 18.0651H312.1L311.1 22.8651C308.2 17.1651 299.6 16.5651 295 16.5651C280.6 16.5651 268 30.3651 268 49.2651C268 64.4651 277.2 74.0651 288.7 74.0651C295.1 74.0651 300.6 72.5651 305.1 67.2651L303.9 72.5651H306.5H322L330.3 17.9651H314V18.0651ZM297 55.8651C290.8 55.8651 286.1 51.0651 286.1 44.9651C286.1 38.9651 290.9 34.0651 297 34.0651C303 34.0651 307.8 38.9651 307.8 44.9651C307.8 51.0651 303 55.8651 297 55.8651Z" fill="#ffffff"/>
<path d="M88.6479 13.0385C89.8028 8.14736 86.7741 3.24609 81.883 2.09116C76.9919 0.936235 72.0906 3.965 70.9357 8.8561C69.7807 13.7472 72.8095 18.6485 77.7006 19.8034C82.5917 20.9583 87.493 17.9296 88.6479 13.0385Z" fill="#ffffff"/>
<path d="M79.8 23.6652C75.9 23.6652 72.4 21.8652 70.1 19.1652L62 72.6652H80.2L88.1 20.6652C85.8 22.4652 82.9 23.6652 79.8 23.6652Z" fill="#ffffff"/>
<path d="M122.3 36.0651C127.326 36.0651 131.4 31.9909 131.4 26.9651C131.4 21.9393 127.326 17.8651 122.3 17.8651C117.274 17.8651 113.2 21.9393 113.2 26.9651C113.2 31.9909 117.274 36.0651 122.3 36.0651Z" fill="#ffffff"/>
<path d="M109.6 26.9651C109.6 23.4651 111 20.2651 113.3 17.9651H96.1L87.8 72.5651H106L111.8 34.1651C110.5 32.1651 109.6 29.6651 109.6 26.9651Z" fill="#ffffff"/>
<path d="M258.5 20.0651C263.526 20.0651 267.6 15.9909 267.6 10.9651C267.6 5.93932 263.526 1.86511 258.5 1.86511C253.474 1.86511 249.4 5.93932 249.4 10.9651C249.4 15.9909 253.474 20.0651 258.5 20.0651Z" fill="#ffffff"/>
<path d="M258.5 23.6651C254.5 23.6651 250.9 21.7651 248.5 18.8651L240.4 72.6651H258.6L266.5 20.8651C264.2 22.5651 261.5 23.6651 258.5 23.6651Z" fill="#ffffff"/>
<path d="M331.7 63.4651C331.7 57.9651 336.1 53.5651 341.5 53.5651C347 53.5651 351.4 57.9651 351.4 63.4651C351.4 68.9651 347 73.2651 341.5 73.2651C336.1 73.3651 331.7 68.9651 331.7 63.4651Z" fill="#ffffff"/>
<path d="M389.7 32.4651C380.2 32.4651 374.3 38.7651 374.3 46.2651C374.3 53.0651 379.3 57.7651 386.6 57.7651C389.9 57.7651 394.6 56.7651 399 54.3651L396.4 71.0651C392 73.1651 387.3 74.0651 382.5 74.0651C367.4 74.0651 356 63.6651 356 47.5651C356 30.3651 369.2 16.2651 387.9 16.2651C393.9 16.2651 399.6 17.7651 403.6 19.9651L401.1 35.7651C398 33.9651 394.2 32.4651 389.7 32.4651Z" fill="#ffffff"/>
<path d="M403 48.3651C403 30.6651 416.5 16.2651 434.6 16.2651C450.1 16.2651 461.4 26.9651 461.4 42.1651C461.4 59.7651 447.9 74.0651 429.4 74.0651C414.9 74.0651 403 63.5651 403 48.3651ZM443.5 43.3651C443.5 36.8651 439.6 32.5651 433.6 32.5651C425.9 32.5651 420.9 39.6651 420.9 47.2651C420.9 53.6651 424.7 57.8651 430.7 57.8651C438.3 57.9651 443.5 50.9651 443.5 43.3651Z" fill="#ffffff"/>
<path d="M484.3 17.7651L485 25.0651H485.3C489.4 19.6651 494.9 16.3651 501.8 16.3651C509.2 16.3651 514.6 20.1651 516.4 25.6651C520.6 19.5651 526.2 16.3651 533.4 16.3651C542.9 16.3651 549.1 22.5651 549.1 32.1651C549.1 33.3651 549 34.7651 548.8 35.9651L543.2 72.6651H525L529.9 40.4651C530 39.7651 530.1 38.9651 530.1 38.2651C530.1 34.9651 528.4 32.6651 525 32.6651C520.5 32.6651 517.6 36.2651 517 40.5651L512.1 72.5651H493.9L498.8 40.3651C499 39.5651 499.1 38.7651 499.1 38.0651C499.1 35.0651 497.5 32.5651 493.9 32.5651C489.4 32.5651 486.5 36.1651 485.9 40.4651L481 72.4651H462.8L471.1 17.6651H484.3V17.7651Z" fill="#ffffff"/>
</svg>
